<?xml version="1.0" standalone="no"?>
<!DOCTYPE svg PUBLIC "-//W3C//DTD SVG 20010904//EN"
 "http://www.w3.org/TR/2001/REC-SVG-20010904/DTD/svg10.dtd">
<svg version="1.0" xmlns="http://www.w3.org/2000/svg"
 width="200.000000pt" height="200.000000pt" viewBox="0 0 200.000000 200.000000"
 preserveAspectRatio="xMidYMid meet">
<metadata>
Created by potrace 1.11, written by Peter Selinger 2001-2013
</metadata>
<g transform="translate(0.000000,200.000000) scale(0.100000,-0.100000)"
fill="#000000" stroke="none">
<path d="M152 1983 c-5 -11 -9 -412 -8 -938 1 -996 -1 -948 53 -997 53 -49 44
-48 825 -48 709 0 734 1 765 20 61 36 82 120 57 217 -7 29 -34 92 -58 141 -63
124 -76 172 -77 277 0 33 3 78 6 100 9 58 60 159 99 192 44 40 49 49 36 74
-25 46 -114 -17 -164 -116 -39 -77 -54 -144 -54 -244 0 -123 11 -168 81 -316
52 -109 62 -139 61 -183 0 -81 -12 -87 -167 -83 -36 1 -37 2 -25 23 16 29 21
1835 5 1856 -5 6 -20 12 -33 12 -19 0 -39 -27 -121 -164 -89 -149 -101 -165
-128 -168 -16 -2 -228 -2 -471 0 l-440 2 -84 163 c-90 177 -104 197 -131 197
-10 0 -22 -8 -27 -17z m148 -333 c22 -43 47 -81 57 -84 28 -7 1007 -6 1019 2
10 6 77 112 110 173 7 11 16 25 21 30 7 7 10 -283 9 -808 -1 -883 1 -853 -54
-874 -18 -7 -225 -11 -599 -11 -519 0 -575 1 -598 16 -14 10 -30 27 -34 39 -5
12 -9 390 -9 840 0 927 -9 849 78 677z"/>
<path d="M516 1289 c-80 -22 -120 -124 -76 -196 24 -41 55 -60 104 -66 110
-14 181 102 124 204 -28 51 -91 75 -152 58z m72 -85 c42 -29 16 -104 -37 -104
-24 0 -51 32 -51 61 0 27 30 59 55 59 6 0 21 -7 33 -16z"/>
<path d="M1145 1288 c-43 -11 -86 -59 -95 -106 -24 -132 148 -214 234 -111 67
79 27 201 -71 218 -21 4 -52 4 -68 -1z m75 -88 c11 -11 20 -29 20 -40 0 -20
-33 -60 -49 -60 -58 0 -85 57 -45 97 28 28 48 29 74 3z"/>
<path d="M792 939 c-11 -4 -23 -12 -26 -18 -11 -17 11 -48 39 -55 21 -5 25
-12 25 -41 0 -69 64 -64 79 5 4 19 12 36 19 36 7 1 16 2 22 3 5 0 14 11 21 22
19 36 -9 52 -89 54 -38 1 -78 -2 -90 -6z"/>
</g>
</svg>
